HIERARCHY
ROOT Hips
{
  OFFSET -35.4901 99.2528 17.4586
  CHANNELS 6 Xposition Yposition Zposition Zrotation Xrotation Yrotation
  JOINT LeftUpLeg
  {
    OFFSET 8.64259 1.95398 -2.38835
    CHANNELS 3 Zrotation Xrotation Yrotation
    JOINT LeftLeg
    {
      OFFSET 43.7702 0 0
      CHANNELS 3 Zrotation Xrotation Yrotation
      JOINT LeftFoot
      {
        OFFSET 40.6238 0 0
        CHANNELS 3 Zrotation Xrotation Yrotation
        JOINT LeftToeBase
        {
          OFFSET 12.7242 0 0
          CHANNELS 3 Zrotation Xrotation Yrotation
          End Site
          {
            OFFSET 0 0 0
          }
        }
      }
    }
  }
  JOINT RightUpLeg
  {
    OFFSET -8.2249 1.95398 -2.59336
    CHANNELS 3 Zrotation Xrotation Yrotation
    JOINT RightLeg
    {
      OFFSET 43.5653 0 0
      CHANNELS 3 Zrotation Xrotation Yrotation
      JOINT RightFoot
      {
        OFFSET 40.6238 0 0
        CHANNELS 3 Zrotation Xrotation Yrotation
        JOINT RightToeBase
        {
          OFFSET 12.7242 0 0
          CHANNELS 3 Zrotation Xrotation Yrotation
          End Site
          {
            OFFSET 0 0 0
          }
        }
      }
    }
  }
  JOINT Spine
  {
    OFFSET 0.165834 0.87714 6.61349
    CHANNELS 3 Zrotation Xrotation Yrotation
    JOINT Spine1
    {
      OFFSET 7.38963 1.71661e-005 0
      CHANNELS 3 Zrotation Xrotation Yrotation
      JOINT Spine2
      {
        OFFSET 11.9445 1.14441e-005 0
        CHANNELS 3 Zrotation Xrotation Yrotation
        JOINT Spine3
        {
          OFFSET 14.7254 4.19617e-005 0
          CHANNELS 3 Zrotation Xrotation Yrotation
          JOINT Spine4
          {
            OFFSET 10.9679 0 0
            CHANNELS 3 Zrotation Xrotation Yrotation
            JOINT RightShoulder
            {
              OFFSET 2.46616 -1.6653 3.69651
              CHANNELS 3 Zrotation Xrotation Yrotation
              JOINT RightArm
              {
                OFFSET 13.0012 0 0
                CHANNELS 3 Zrotation Xrotation Yrotation
                JOINT RightForeArm
                {
                  OFFSET 28.7848 1.52588e-005 0
                  CHANNELS 3 Zrotation Xrotation Yrotation
                  JOINT RightHand
                  {
                    OFFSET 26.5688 1.52588e-005 0
                    CHANNELS 3 Zrotation Xrotation Yrotation
                    End Site
                    {
                      OFFSET 0 0 0
                    }
                  }
                }
              }
            }
            JOINT LeftShoulder
            {
              OFFSET 2.38034 -1.29275 -3.7523
              CHANNELS 3 Zrotation Xrotation Yrotation
              JOINT LeftArm
              {
                OFFSET 16.3182 6.10351e-005 0
                CHANNELS 3 Zrotation Xrotation Yrotation
                JOINT LeftForeArm
                {
                  OFFSET 27.0901 0 0
                  CHANNELS 3 Zrotation Xrotation Yrotation
                  JOINT LeftHand
                  {
                    OFFSET 24.5451 1.52588e-005 0
                    CHANNELS 3 Zrotation Xrotation Yrotation
                    End Site
                    {
                      OFFSET 0 0 0
                    }
                  }
                }
              }
            }
            JOINT Neck
            {
              OFFSET 5.0226 -0.0266342 0
              CHANNELS 3 Zrotation Xrotation Yrotation
              JOINT Head
              {
                OFFSET 6.69364 2.86102e-005 0
                CHANNELS 3 Zrotation Xrotation Yrotation
                End Site
                {
                  OFFSET 0 0 0
                }
              }
            }
          }
        }
      }
    }
  }
}
MOTION
Frames:	6
Frame Time:	0.0416667
9.96926 99.4584 20.4419 -156.351 -82.7257 -157.214 -177.641 -2.0152 89.3617 -13.6324 3.3028 -0.133428 71.8385 4.78073 -2.17526 15.4296 -3.49454 5.64733 169.697 -4.37056 87.3961 -11.9649 -3.41522 -0.324817 72.4287 -5.73134 2.92464 19.8065 -1.36177 4.04176 0.209188 7.64934 -90.1484 11.5756 0.346697 -0.331524 -0.0953211 0.331768 -0.346465 -22.6307 0.430304 -0.211997 -2.61805 0.430302 -0.211999 90.1454 -31.5079 -105.913 40.7286 -13.6014 -6.79581 3.54007 -28.9861 -15.3768 -23.7201 0.0725527 -9.19642 -83.7629 -54.4742 88.574 -22.0595 17.8991 -17.8938 0.978746 13.1161 -7.95475 1.98719 -0.115512 -5.1323 6.87615 -0.832167 -1.05872 -5.06565 -0.63155 0.941066 
9.95914 99.4797 20.3938 -154.503 -82.9869 -155.159 -177.64 -1.4305 89.53 -14.0073 3.13667 -0.0727501 71.8281 4.71529 -2.21062 15.9148 -3.68134 5.9051 169.915 -4.05374 87.6877 -11.8576 -3.34597 -0.298552 72.1659 -5.66749 2.99211 19.9578 -1.34958 4.0101 0.229611 7.618 -90.1789 11.6385 0.372908 -0.395422 -0.032493 0.355145 -0.41145 -22.5678 0.47451 -0.265059 -2.55518 0.474508 -0.265064 90.1291 -31.3374 -106.006 40.9843 -13.2686 -6.70863 3.31662 -29.2474 -15.2681 -23.7574 -0.0334431 -8.63309 -83.6639 -54.5368 88.7224 -21.8427 18.1777 -18.1144 0.712659 12.6907 -7.77097 1.23883 -0.110043 -5.08519 7.13354 -0.818257 -0.856728 -5.35389 -0.652136 0.727373 
9.9155 99.4805 20.4157 -155.03 -82.9149 -155.654 -177.623 -1.60535 89.5815 -13.8955 3.08392 -0.0396226 71.9079 4.75763 -2.33387 15.3557 -3.52941 5.69182 169.862 -4.2761 87.6984 -11.6705 -3.36439 -0.238732 72.0739 -5.6697 2.95688 19.9773 -1.29286 3.8857 0.210902 7.62409 -90.1845 11.6262 0.333111 -0.402247 -0.044811 0.315087 -0.41653 -22.58 0.4386 -0.283531 -2.56738 0.438602 -0.283543 90.0377 -31.1856 -106.24 41.0498 -13.407 -6.67559 3.50513 -29.0364 -14.9661 -24.0172 0.116874 -9.39331 -83.6011 -54.6415 88.8224 -21.6226 18.3704 -17.999 0.673179 12.7672 -7.99238 1.80856 -0.113273 -4.99198 7.12733 -0.754912 -0.708574 -5.38026 -0.619001 0.691449 
9.90282 99.4882 20.4648 -155.574 -82.7613 -156.345 -177.684 -1.92098 89.4474 -13.6793 2.84805 -0.0284684 71.8053 4.71504 -2.47096 15.5114 -3.33683 5.43998 169.769 -4.2707 87.566 -11.9768 -3.45309 -0.252388 72.1017 -5.64835 2.52648 20.1297 -1.45386 4.23131 0.218788 7.6414 -90.1708 11.5915 0.355277 -0.377032 -0.079431 0.338343 -0.39231 -22.6147 0.452158 -0.252833 -2.6021 0.452169 -0.252825 90.0457 -31.2777 -106.19 40.7575 -13.6968 -6.8036 3.90393 -28.8566 -14.6671 -23.6637 0.118175 -9.43879 -83.7412 -54.631 88.6208 -21.6108 18.3925 -18.0915 0.646629 13.0673 -7.84132 1.59966 -0.122106 -5.2719 7.04085 -0.783609 -0.574764 -5.29464 -0.668965 0.519325 
9.86645 99.4959 20.4665 -155.005 -82.7838 -155.692 -177.687 -1.85333 89.5066 -13.7257 2.9297 0.0258901 71.9079 4.7559 -2.39546 15.5012 -3.50727 5.66543 169.885 -4.43155 87.7171 -11.6105 -3.4781 -0.28204 72.0831 -5.71331 2.328 19.8401 -1.54727 4.44227 0.226042 7.63599 -90.175 11.6024 0.36772 -0.38679 -0.0685258 0.350342 -0.402599 -22.6039 0.466973 -0.258383 -2.59121 0.466963 -0.258396 90.0613 -31.3214 -106.144 40.8405 -13.5073 -6.75597 3.4528 -29.3224 -15.221 -24.0045 -0.029068 -8.62773 -83.7928 -54.3661 88.5202 -22.1582 18.2253 -17.9597 0.733531 12.6202 -7.82999 0.774309 -0.132938 -5.91344 7.21092 -0.871128 -0.698642 -5.51989 -0.731652 0.575696 
9.86576 99.4944 20.4743 -155.704 -82.7848 -156.418 -177.694 -1.94685 89.4736 -13.6218 3.1198 0.0401438 71.7968 4.74059 -2.3018 15.5731 -3.87221 6.14995 169.794 -4.55366 87.5906 -11.459 -3.14017 -0.260142 72.0128 -5.59894 3.29192 20.058 -1.24634 3.7809 0.218833 7.63909 -90.1616 11.5962 0.35969 -0.359159 -0.0747727 0.343533 -0.37464 -22.6101 0.451005 -0.234444 -2.59748 0.450998 -0.234456 89.9649 -31.4845 -106.272 40.7408 -13.419 -6.73551 3.84549 -29.3334 -14.7257 -23.882 0.128555 -9.52367 -83.8992 -54.0671 88.3362 -22.4541 17.9106 -17.9136 0.989738 13.3553 -7.8192 2.07011 -0.116818 -5.03861 7.10648 -0.863127 -0.861664 -5.32287 -0.693051 0.654253 
